<?xml version="1.0" standalone="no"?>
<!DOCTYPE svg PUBLIC "-//W3C//DTD SVG 20010904//EN"
 "http://www.w3.org/TR/2001/REC-SVG-20010904/DTD/svg10.dtd">
<svg version="1.0" xmlns="http://www.w3.org/2000/svg"
 width="3422.000000pt" height="742.000000pt" viewBox="0 0 3422.000000 742.000000"
 preserveAspectRatio="xMidYMid meet">
<metadata>
Created by potrace 1.16, written by Peter Selinger 2001-2019
</metadata>
<g transform="translate(0.000000,742.000000) scale(0.100000,-0.100000)"
fill="#000000" stroke="none">
<path d="M3388 7373 c7 -3 16 -2 19 1 4 3 -2 6 -13 5 -11 0 -14 -3 -6 -6z"/>
<path d="M3518 7353 c12 -2 30 -2 40 0 9 3 -1 5 -23 4 -22 0 -30 -2 -17 -4z"/>
<path d="M3635 7339 l-40 -6 38 -2 38 -1 -21 -22 c-11 -12 -20 -28 -20 -35 0
-7 -6 -13 -12 -13 -17 0 -15 -165 2 -185 7 -8 10 -21 7 -30 -4 -8 -1 -20 6
-27 7 -7 23 -34 36 -60 13 -27 28 -48 34 -48 5 0 7 -9 4 -20 -3 -13 0 -20 9
-20 8 0 14 -7 14 -15 0 -8 14 -28 30 -43 17 -16 30 -34 30 -39 0 -6 18 -29 40
-52 22 -22 40 -45 40 -51 0 -5 27 -36 60 -69 33 -33 60 -65 60 -70 0 -5 36
-45 80 -90 44 -44 80 -85 80 -90 0 -6 23 -33 50 -60 28 -28 50 -54 50 -59 0
-5 14 -23 30 -40 17 -18 30 -36 30 -40 0 -5 12 -22 28 -38 15 -16 33 -42 41
-57 8 -15 18 -27 23 -27 4 0 8 -6 8 -13 0 -7 9 -23 21 -36 11 -12 18 -29 15
-37 -3 -8 1 -14 9 -14 8 0 15 -7 15 -16 0 -9 10 -25 21 -35 12 -10 19 -25 16
-32 -3 -8 6 -26 20 -41 13 -15 22 -34 19 -42 -3 -8 1 -14 10 -14 11 0 15 -6
11 -20 -3 -14 0 -20 10 -20 10 0 14 -6 10 -20 -3 -14 0 -20 10 -20 10 0 14 -6
10 -20 -3 -11 2 -27 10 -35 8 -9 12 -22 9 -30 -3 -9 1 -15 10 -15 11 0 15 -6
11 -20 -3 -14 0 -20 10 -20 10 0 14 -6 10 -20 -3 -14 0 -20 10 -20 10 0 14 -6
10 -20 -3 -10 2 -25 10 -31 8 -7 12 -21 10 -31 -3 -12 0 -18 10 -18 10 0 14
-6 10 -20 -3 -14 0 -20 10 -20 10 0 14 -6 10 -20 -3 -10 2 -25 10 -31 8 -7 12
-21 10 -31 -3 -12 0 -18 10 -18 10 0 14 -6 10 -20 -3 -10 2 -25 10 -31 8 -7
12 -21 10 -31 -3 -12 0 -18 10 -18 10 0 14 -6 10 -20 -3 -14 0 -20 10 -20 10
0 14 -6 10 -20 -3 -10 2 -25 10 -31 8 -7 12 -21 10 -31 -3 -12 0 -18 10 -18
11 0 14 -8 11 -30 -3 -21 0 -30 10 -30 10 0 13 -10 10 -40 -2 -28 0 -40 9 -40
9 0 13 -16 13 -50 0 -27 5 -50 10 -50 6 0 10 -35 10 -85 0 -50 -4 -85 -10 -85
-5 0 -10 -22 -10 -50 0 -36 -4 -50 -14 -50 -9 0 -12 -8 -9 -25 3 -14 -1 -31
-10 -39 -8 -9 -13 -25 -10 -36 4 -14 0 -20 -10 -20 -10 0 -13 -6 -10 -20 4
-14 0 -20 -11 -20 -9 0 -13 -6 -10 -14 3 -8 -4 -25 -15 -37 -12 -13 -21 -29
-21 -36 0 -7 -4 -13 -8 -13 -5 0 -15 -12 -23 -27 -8 -16 -22 -37 -31 -47 -10
-11 -18 -24 -18 -28 0 -12 -247 -258 -259 -258 -6 0 -27 -17 -48 -37 -21 -21
-50 -44 -65 -52 -16 -8 -28 -18 -28 -23 0 -4 -6 -8 -13 -8 -7 0 -23 -9 -36
-21 -12 -11 -29 -18 -37 -15 -8 3 -14 -1 -14 -10 0 -11 -6 -15 -20 -11 -13 3
-20 0 -20 -9 0 -8 -9 -14 -20 -14 -11 0 -20 -4 -20 -10 0 -5 -9 -10 -20 -10
-11 0 -20 -5 -20 -11 0 -6 -9 -9 -20 -6 -14 3 -20 0 -20 -10 0 -10 -6 -14 -20
-10 -14 3 -20 0 -20 -10 0 -11 -8 -14 -30 -11 -20 3 -30 0 -30 -9 0 -8 -12
-13 -30 -13 -16 0 -30 -4 -30 -10 0 -5 -18 -10 -40 -10 -22 0 -40 -4 -40 -10
0 -6 -42 -10 -105 -10 -63 0 -105 4 -105 10 0 6 -12 10 -26 10 -29 0 -54 21
-54 44 0 9 -4 16 -10 16 -5 0 -10 7 -10 15 0 8 5 15 10 15 6 0 10 14 10 30 0
17 5 30 10 30 6 0 10 13 10 28 0 16 8 34 20 42 11 8 20 20 20 28 0 15 44 62
59 62 5 0 7 9 4 20 -4 14 0 20 11 20 9 0 13 6 10 15 -4 9 6 27 25 44 17 16 31
36 31 45 0 9 4 16 8 16 5 0 15 12 23 28 8 15 22 36 32 46 9 11 17 24 17 28 0
5 9 18 20 30 11 12 20 28 20 35 0 7 6 13 14 13 9 0 12 7 9 20 -3 11 -1 20 4
20 6 0 21 21 34 48 13 26 29 53 36 59 6 7 9 22 6 33 -4 14 0 20 10 20 10 0 13
6 10 18 -2 10 2 24 10 31 8 6 13 20 10 30 -2 9 2 23 10 30 8 6 13 21 10 31 -4
13 0 20 9 20 11 0 14 7 10 25 -2 14 2 32 9 41 7 9 12 33 10 55 -2 27 2 39 11
39 9 0 12 13 10 50 -3 37 0 50 10 50 10 0 13 41 13 215 0 174 -3 215 -13 215
-10 0 -13 13 -10 50 2 37 0 50 -11 50 -9 0 -12 11 -9 40 2 28 0 40 -9 40 -7 0
-13 9 -13 20 0 11 -5 20 -11 20 -7 0 -10 12 -7 30 3 22 0 30 -10 30 -9 0 -13
7 -9 20 3 14 0 20 -10 20 -10 0 -14 6 -10 20 3 14 0 20 -10 20 -10 0 -14 6
-10 20 3 13 0 20 -9 20 -8 0 -14 6 -14 13 0 7 -9 23 -21 36 -11 12 -18 29 -15
37 3 7 1 14 -5 14 -13 0 -39 25 -39 38 0 5 -31 42 -70 81 -38 39 -70 75 -70
80 0 13 -48 61 -61 61 -5 0 -33 22 -62 50 -28 27 -56 50 -61 50 -5 0 -22 14
-38 30 -15 17 -35 30 -43 30 -8 0 -15 4 -15 9 0 5 -52 34 -115 66 -63 31 -117
61 -120 65 -3 5 -13 6 -23 3 -10 -2 -24 2 -31 10 -6 8 -20 13 -30 10 -9 -2
-23 2 -30 11 -7 8 -19 12 -26 9 -8 -3 -21 2 -29 10 -9 8 -25 12 -39 10 -14 -3
-35 1 -48 8 -13 7 -46 11 -73 10 -27 -1 -52 3 -56 9 -9 15 -355 15 -409 0 -22
-6 -57 -10 -76 -8 -21 1 -40 -3 -44 -11 -5 -7 -20 -11 -33 -10 -14 2 -33 -2
-41 -10 -9 -7 -23 -11 -31 -8 -8 3 -20 -1 -27 -9 -7 -9 -21 -13 -31 -11 -10 3
-24 0 -31 -6 -18 -17 -97 -57 -112 -57 -7 0 -15 -3 -17 -7 -1 -5 -23 -21 -48
-38 -38 -25 -118 -89 -142 -113 -78 -80 -173 -185 -192 -212 -75 -106 -97
-141 -124 -200 -62 -133 -75 -165 -74 -184 0 -11 -4 -28 -9 -38 -6 -11 -12
-38 -15 -61 -2 -23 -13 -54 -24 -69 -11 -16 -16 -28 -11 -28 5 0 12 6 14 13 3
6 6 -5 6 -25 1 -21 -2 -38 -7 -38 -4 0 -13 -9 -20 -20 -16 -27 -18 -508 -2
-524 5 -5 10 -18 10 -28 0 -10 5 -18 10 -18 6 0 10 -12 9 -27 0 -16 -3 -22 -6
-15 -2 6 -9 12 -14 12 -5 0 0 -13 12 -29 12 -17 22 -48 25 -77 4 -53 54 -205
85 -261 10 -18 19 -40 19 -47 0 -7 9 -25 20 -39 11 -14 20 -32 20 -41 0 -9 4
-16 9 -16 5 0 12 -8 16 -19 3 -10 18 -33 33 -50 45 -51 78 -95 92 -120 7 -14
26 -36 43 -50 16 -14 38 -38 47 -53 9 -16 54 -67 99 -113 44 -47 81 -89 81
-94 0 -5 32 -41 71 -80 47 -46 69 -76 65 -86 -3 -8 -1 -15 5 -15 19 0 39 -28
39 -54 0 -14 5 -26 10 -26 6 0 10 -16 10 -35 0 -19 -4 -35 -10 -35 -5 0 -10
-13 -10 -30 0 -16 -4 -30 -10 -30 -5 0 -10 -7 -10 -15 0 -8 -18 -34 -40 -56
-22 -23 -40 -46 -40 -53 0 -6 -36 -46 -80 -89 -44 -44 -80 -85 -80 -93 0 -8
-7 -14 -16 -14 -19 0 -44 -24 -44 -43 0 -7 -20 -33 -45 -56 -25 -23 -45 -46
-45 -51 0 -4 -18 -28 -40 -52 -22 -23 -40 -46 -40 -50 0 -4 -11 -20 -25 -35
-37 -42 -70 -94 -123 -196 -26 -51 -50 -94 -53 -97 -3 -3 -12 -26 -20 -53 -7
-26 -17 -47 -21 -47 -4 0 -8 -8 -8 -18 0 -10 -5 -23 -12 -30 -6 -6 -11 -25
-10 -42 0 -19 -4 -30 -13 -30 -9 0 -12 -6 -9 -15 3 -8 2 -20 -2 -27 -10 -16
-15 -44 -14 -85 0 -21 -4 -33 -13 -33 -9 0 -12 -11 -9 -35 2 -19 0 -41 -6 -48
-5 -6 -8 -30 -6 -52 2 -26 -2 -45 -13 -57 -12 -13 -16 -34 -14 -73 1 -39 -2
-55 -10 -53 -8 2 -11 -17 -10 -65 2 -42 -2 -74 -10 -83 -7 -9 -11 -41 -10 -83
2 -49 -2 -71 -12 -80 -8 -6 -13 -21 -10 -32 4 -12 1 -19 -7 -17 -11 3 -23 -50
-21 -97 2 -35 -9 -65 -22 -65 -9 0 -12 -10 -9 -28 2 -17 -2 -33 -12 -41 -8 -7
-12 -19 -9 -27 8 -20 -16 -45 -41 -42 -14 2 -20 -2 -18 -11 4 -19 -27 -81 -44
-88 -8 -3 -14 -14 -14 -24 0 -10 -4 -19 -10 -19 -5 0 -10 -9 -10 -19 0 -14 -9
-21 -38 -26 -25 -4 -41 -13 -47 -28 -7 -14 -19 -22 -35 -22 -14 0 -26 -5 -26
-10 -7 -49 -39 -75 -46 -37 -3 14 -7 13 -28 -11 -18 -21 -32 -27 -58 -25 -19
1 -37 -3 -42 -11 -4 -8 -15 -11 -24 -8 -8 3 -22 -1 -31 -9 -9 -9 -22 -14 -30
-11 -7 3 -19 -1 -25 -9 -8 -8 -30 -14 -57 -14 -27 0 -42 -4 -38 -10 4 -6 -6
-10 -22 -9 -25 0 -26 1 -8 9 17 7 17 9 3 9 -31 2 -33 1 -33 -6 -1 -21 -17 -34
-30 -23 -10 8 -15 8 -20 0 -5 -8 -10 -8 -20 0 -9 8 -15 8 -20 0 -4 -6 -61 -10
-151 -10 l-144 0 0 -195 0 -194 283 -3 c155 -2 577 -3 937 -3 l655 0 -4 1198
-3 1197 693 1 c382 1 703 3 714 4 11 1 52 5 90 9 81 7 228 24 265 29 89 14
222 40 260 52 25 7 61 16 80 20 19 4 59 19 88 32 29 13 92 39 140 57 48 19
123 52 167 75 44 22 83 41 87 41 4 0 27 14 51 30 25 17 48 30 51 30 9 0 130
93 139 107 4 7 13 13 19 13 33 0 345 340 398 434 11 21 28 49 37 63 48 73 163
308 163 333 0 6 4 18 9 28 39 77 71 184 101 337 7 33 16 68 21 77 5 10 9 40 9
67 0 28 5 53 10 56 6 3 10 34 10 68 0 34 4 76 9 93 5 16 10 165 12 329 4 294
-4 473 -22 507 -5 10 -12 44 -15 75 -3 32 -12 86 -21 121 -8 35 -13 66 -10 69
3 3 -2 26 -12 52 -10 25 -24 73 -31 106 -7 33 -19 65 -28 71 -9 7 -13 19 -9
33 3 14 -4 41 -19 71 -13 26 -24 54 -24 62 0 7 -6 22 -13 33 -7 11 -22 42 -32
69 -10 27 -29 65 -42 84 -12 19 -23 42 -23 52 0 9 -10 25 -21 36 -12 10 -30
38 -40 61 -20 47 -46 78 -209 246 -202 208 -412 354 -665 462 -70 30 -79 33
-120 46 -22 7 -44 17 -49 21 -6 4 -20 8 -32 8 -13 0 -26 5 -29 10 -3 6 -19 10
-35 10 -16 0 -32 5 -35 10 -3 6 -21 10 -40 10 -19 0 -37 5 -40 10 -3 6 -21 10
-40 10 -19 0 -37 5 -40 10 -3 6 -24 10 -46 10 -22 0 -48 4 -57 8 -9 4 -35 5
-57 1z m-880 -1449 c111 -17 193 -36 260 -60 11 -4 58 -26 105 -49 150 -73
259 -180 327 -320 76 -158 93 -244 93 -466 0 -218 -17 -307 -89 -455 -69 -143
-185 -261 -326 -330 -120 -58 -160 -70 -325 -102 -49 -9 -904 -28 -922 -20 -8
3 -11 1805 -4 1813 9 9 815 -1 881 -11z"/>
<path d="M17570 5274 c-19 -2 -80 -9 -135 -15 -307 -32 -581 -104 -865 -225
-306 -130 -614 -351 -816 -585 -49 -57 -101 -120 -114 -139 -13 -19 -27 -37
-30 -40 -9 -7 -85 -122 -93 -140 -4 -8 -20 -37 -37 -65 -42 -71 -113 -216
-151 -312 -5 -13 -13 -33 -18 -45 -13 -30 -65 -193 -79 -243 -45 -169 -64
-266 -81 -405 -88 -709 18 -1307 325 -1827 232 -394 590 -719 1013 -919 119
-57 149 -70 189 -85 12 -5 32 -13 45 -18 12 -6 54 -20 92 -32 39 -12 79 -25
90 -29 53 -19 93 -30 113 -30 11 0 23 -4 26 -9 6 -9 37 -15 136 -27 25 -3 49
-10 54 -15 6 -5 33 -9 61 -9 28 0 55 -4 61 -9 17 -17 278 -31 364 -20 l45 6
-44 1 c-42 2 -43 3 -39 32 3 17 1 33 -4 36 -4 3 -8 -11 -8 -30 0 -34 -2 -36
-35 -36 l-35 0 0 108 c0 96 -2 109 -20 122 -24 17 -27 60 -5 60 8 0 15 -4 15
-10 0 -5 4 -10 10 -10 5 0 2 16 -7 35 -9 19 -20 35 -25 35 -4 0 -8 7 -8 15 0
8 9 15 20 15 15 0 20 7 20 25 0 14 -5 25 -11 25 -6 0 -4 7 5 15 8 8 31 15 50
15 20 0 36 5 36 10 0 15 130 13 130 -2 1 -7 9 2 19 20 15 29 19 32 30 18 7 -9
11 -23 7 -31 -3 -9 0 -15 8 -15 9 0 12 7 9 18 -8 33 18 44 76 30 28 -6 51 -15
51 -20 0 -4 36 -8 80 -8 47 0 80 -4 80 -10 0 -5 24 -10 53 -11 28 0 46 -3 40
-6 -30 -12 -4 -73 31 -73 9 0 16 -7 16 -15 0 -8 -9 -15 -20 -15 -15 0 -20 -7
-20 -25 0 -18 5 -25 20 -25 27 0 25 -16 -5 -45 -21 -22 -23 -31 -18 -77 3 -29
11 -56 17 -60 8 -5 7 -8 -1 -8 -8 0 -13 -13 -13 -30 0 -16 -4 -30 -10 -30 -5
0 -10 -9 -10 -20 0 -15 -7 -20 -25 -20 -23 0 -25 4 -25 47 0 25 -3 43 -7 39
-4 -4 -6 -25 -4 -46 l3 -40 -44 -1 c-43 -2 -43 -2 -8 -8 48 -8 199 -5 295 8
44 5 107 13 140 16 33 3 69 10 80 15 11 5 36 11 55 14 19 3 58 10 85 16 28 6
65 14 83 17 18 3 35 9 38 14 3 5 15 9 26 9 20 0 112 28 163 50 11 4 58 23 105
41 127 49 251 115 380 202 281 188 537 483 698 803 89 178 183 428 167 442 -6
5 -384 6 -841 4 l-830 -4 -30 -47 c-41 -65 -188 -211 -259 -258 -198 -130
-409 -174 -700 -148 -82 8 -170 19 -195 25 -25 5 -60 13 -78 16 -18 4 -35 11
-38 15 -3 5 -12 9 -20 9 -19 0 -148 61 -152 72 -2 4 -8 8 -14 8 -32 0 -155
110 -219 196 -106 143 -150 255 -195 494 -4 19 -8 94 -11 166 l-4 131 1830 -3
1831 -3 0 172 c0 203 -22 473 -51 627 -6 30 -15 80 -20 110 -10 53 -16 80 -40
173 -15 59 -50 178 -59 202 -4 11 -13 36 -20 55 -43 125 -129 314 -190 415
-17 28 -33 57 -37 65 -8 18 -84 133 -93 140 -3 3 -17 21 -30 40 -13 19 -27 37
-30 40 -4 4 -46 54 -131 154 -72 85 -350 303 -483 378 -38 21 -238 120 -286
141 -182 80 -477 156 -751 193 -108 14 -654 28 -739 18z m555 -1125 c22 -6 58
-15 80 -21 57 -15 144 -48 185 -71 19 -11 52 -29 73 -40 20 -12 37 -24 37 -29
0 -4 6 -8 14 -8 19 0 226 -207 226 -226 0 -8 4 -14 8 -14 5 0 15 -12 23 -27 8
-16 16 -30 19 -33 6 -6 57 -110 89 -182 12 -26 21 -59 21 -72 0 -14 5 -28 10
-31 6 -3 10 -15 10 -26 0 -19 -17 -19 -1005 -19 -654 0 -1005 3 -1005 10 0 18
22 105 31 122 5 10 9 27 9 37 0 11 5 23 10 26 6 3 10 14 10 23 1 27 98 212
112 212 4 0 8 6 8 13 0 23 143 162 220 213 79 53 160 94 184 94 8 0 18 5 21
10 3 6 19 10 35 10 16 0 31 4 34 9 21 33 431 48 541 20z m-1775 -469 c0 -5 9
-10 20 -10 11 0 20 -4 20 -10 0 -5 7 -10 16 -10 22 0 47 -28 40 -45 -3 -8 -1
-15 5 -15 18 0 61 -51 55 -65 -3 -8 -1 -15 5 -15 18 0 41 -30 35 -45 -3 -9 0
-15 9 -15 8 0 15 -7 15 -16 0 -9 8 -24 18 -33 9 -9 23 -28 31 -43 8 -16 18
-28 23 -28 4 0 8 -9 8 -20 0 -11 3 -20 8 -20 8 0 32 -48 32 -63 0 -5 10 -18
21 -28 12 -11 19 -25 15 -34 -3 -9 0 -15 10 -15 11 0 15 -6 11 -20 -3 -13 0
-20 9 -20 8 0 14 -9 14 -20 0 -11 5 -20 10 -20 6 0 10 -22 10 -50 0 -27 5 -50
10 -50 6 0 10 -20 10 -45 0 -25 -4 -45 -10 -45 -5 0 -10 -22 -10 -50 0 -36 -4
-50 -14 -50 -9 0 -12 -7 -9 -20 4 -14 0 -20 -10 -20 -10 0 -13 -6 -10 -20 4
-14 0 -20 -11 -20 -9 0 -13 -6 -10 -14 3 -8 -4 -25 -15 -37 -12 -13 -21 -29
-21 -36 0 -7 -4 -13 -9 -13 -5 0 -16 -16 -26 -36 -9 -19 -23 -38 -31 -41 -8
-3 -14 -12 -14 -20 0 -8 -18 -32 -40 -54 -22 -22 -40 -44 -40 -49 0 -6 -18
-29 -40 -51 -22 -23 -40 -46 -40 -51 0 -12 -67 -78 -79 -78 -5 0 -7 -9 -4 -21
5 -17 2 -20 -18 -17 -18 2 -23 -1 -21 -15 4 -24 -42 -67 -73 -67 -14 0 -25 -6
-26 -12 0 -10 -2 -10 -6 0 -2 6 -20 12 -39 12 -28 0 -44 10 -90 56 -34 34 -54
61 -50 70 3 8 -1 14 -10 14 -11 0 -15 6 -11 20 3 14 0 20 -10 20 -10 0 -14 6
-10 20 3 14 0 20 -10 20 -10 0 -14 6 -10 20 3 14 0 20 -10 20 -10 0 -14 6 -10
20 3 14 0 20 -10 20 -11 0 -14 8 -11 30 3 21 0 30 -10 30 -10 0 -13 10 -10 40
2 28 0 40 -9 40 -9 0 -13 16 -13 50 0 28 -4 50 -10 50 -6 0 -10 75 -10 205 0
157 3 205 13 205 8 0 11 17 9 60 -3 46 -1 60 10 60 10 0 12 11 10 40 -3 30 0
40 10 40 10 0 13 9 10 30 -3 22 0 30 11 30 10 0 13 6 10 20 -4 13 0 20 9 20
11 0 14 7 11 24 -3 16 2 33 16 47 12 13 21 29 21 36 0 7 7 13 15 13 9 0 12 6
9 15 -6 15 17 45 35 45 6 0 8 7 5 15 -6 16 17 45 36 45 7 0 25 14 40 30 15 17
35 30 44 30 9 0 16 5 16 10 0 6 14 10 30 10 17 0 30 5 30 10 0 6 16 10 35 10
19 0 35 -4 35 -10z"/>
<path d="M16288 3653 c12 -2 32 -2 45 0 12 2 2 4 -23 4 -25 0 -35 -2 -22 -4z"/>
<path d="M16210 3636 c0 -9 30 -14 35 -6 4 6 -3 10 -14 10 -12 0 -21 -2 -21
-4z"/>
<path d="M16365 3630 c4 -6 11 -8 16 -5 14 9 11 15 -7 15 -8 0 -12 -5 -9 -10z"/>
<path d="M16166 3605 c-11 -8 -17 -17 -14 -20 2 -3 13 4 23 15 21 23 18 25 -9
5z"/>
<path d="M16405 3610 c4 -6 11 -8 16 -5 14 9 11 15 -7 15 -8 0 -12 -5 -9 -10z"/>
<path d="M16460 3556 c0 -2 7 -9 15 -16 13 -11 14 -10 9 4 -5 14 -24 23 -24
12z"/>
<path d="M16090 2185 c19 -19 36 -35 39 -35 3 0 -10 16 -29 35 -19 19 -36 35
-39 35 -3 0 10 -16 29 -35z"/>
<path d="M16285 2160 c-3 -5 1 -10 10 -10 9 0 13 5 10 10 -3 6 -8 10 -10 10
-2 0 -7 -4 -10 -10z"/>
<path d="M16165 2140 c-30 -8 -30 -8 8 -9 23 -1 36 3 32 9 -3 6 -7 9 -8 9 -1
-1 -15 -5 -32 -9z"/>
<path d="M16245 2140 c-4 -6 3 -10 14 -10 25 0 27 6 6 13 -8 4 -17 2 -20 -3z"/>
<path d="M16218 2113 c7 -3 16 -2 19 1 4 3 -2 6 -13 5 -11 0 -14 -3 -6 -6z"/>
<path d="M27950 5236 c-302 -42 -527 -109 -773 -232 -98 -49 -249 -140 -307
-184 -19 -14 -62 -46 -94 -71 -133 -99 -381 -358 -461 -481 -5 -8 -34 -49 -62
-91 -29 -42 -53 -79 -53 -82 0 -4 -13 -25 -28 -48 -40 -60 -140 -266 -177
-367 -9 -25 -21 -54 -25 -65 -11 -26 -44 -127 -60 -185 -7 -25 -16 -56 -20
-70 -4 -14 -13 -52 -20 -85 -6 -33 -15 -78 -20 -100 -90 -425 -55 -1011 85
-1430 70 -210 182 -446 292 -614 210 -324 538 -632 847 -796 36 -19 74 -39 84
-45 18 -10 144 -67 177 -80 100 -40 130 -50 146 -50 10 0 21 -4 24 -10 3 -5
19 -10 35 -10 16 0 32 -5 35 -10 3 -6 19 -10 34 -10 15 0 31 -4 37 -9 5 -5 27
-11 49 -15 22 -3 67 -10 100 -16 149 -27 237 -33 475 -33 252 -1 376 6 415 23
11 5 37 11 58 14 83 13 107 19 113 27 3 5 15 9 26 9 56 0 254 83 387 162 34
21 65 38 68 38 10 0 138 97 191 145 60 54 173 170 223 228 17 20 35 34 40 31
5 -3 9 -126 9 -275 l0 -269 864 0 865 0 3 2453 c2 1348 0 2457 -4 2462 -4 7
-300 8 -870 5 l-863 -5 4 -236 c2 -167 0 -238 -8 -243 -6 -4 -40 22 -79 61
-177 178 -376 312 -632 426 -95 42 -257 88 -420 119 -137 25 -565 34 -710 14z
m2256 -1046 c8 0 14 5 14 10 0 6 32 10 75 10 43 0 75 -4 75 -10 0 -5 23 -10
50 -10 28 0 50 -4 50 -10 0 -5 7 -10 16 -10 20 0 44 -24 44 -44 0 -9 7 -16 15
-16 23 0 108 -89 101 -106 -3 -8 1 -14 10 -14 12 0 15 -7 12 -30 -3 -21 0 -30
10 -30 10 0 13 -9 10 -30 -3 -16 0 -30 4 -30 22 0 38 -31 38 -74 0 -25 5 -46
10 -46 6 0 10 -58 10 -155 0 -97 -4 -155 -10 -155 -6 0 -10 -30 -10 -70 0 -40
-4 -70 -10 -70 -5 0 -10 -13 -10 -30 0 -16 -4 -30 -10 -30 -5 0 -10 -18 -10
-40 0 -22 -4 -40 -10 -40 -5 0 -10 -13 -10 -28 0 -16 -8 -34 -20 -42 -11 -8
-20 -24 -21 -35 0 -11 -3 -14 -6 -7 -2 6 -16 12 -29 12 -25 0 -94 59 -94 81 0
6 -13 24 -30 39 -16 15 -30 34 -30 42 0 7 -9 20 -20 28 -11 8 -20 21 -20 29 0
7 -10 22 -21 32 -12 11 -19 25 -15 34 3 8 1 15 -5 15 -18 0 -41 30 -35 45 3 9
-1 15 -10 15 -11 0 -15 6 -11 20 3 11 1 20 -4 20 -18 0 -61 51 -55 65 3 9 -1
15 -10 15 -11 0 -15 6 -11 20 3 11 1 20 -4 20 -18 0 -61 51 -55 65 3 9 -1 15
-10 15 -11 0 -15 6 -11 20 3 11 1 20 -5 20 -15 0 -31 20 -57 73 -13 26 -28 47
-33 47 -4 0 -8 13 -8 28 0 16 -8 34 -20 42 -12 8 -20 26 -20 42 0 15 -4 28
-10 28 -5 0 -10 20 -10 45 0 25 5 45 10 45 6 0 10 14 10 31 0 27 2 29 15 15 8
-8 15 -20 15 -26 0 -6 4 -9 9 -6 4 3 6 17 4 30 -6 32 36 76 72 76 14 0 25 5
25 10 0 6 9 10 20 10 11 0 20 6 21 13 0 10 2 10 6 0 2 -7 11 -13 19 -13z
m-2790 -154 c16 -16 19 -96 4 -96 -5 0 -10 -13 -10 -28 0 -16 -8 -34 -20 -42
-11 -8 -20 -22 -20 -32 0 -10 -4 -18 -10 -18 -5 0 -10 -8 -10 -18 0 -10 -9
-24 -20 -32 -11 -8 -20 -22 -20 -32 0 -10 -4 -18 -10 -18 -5 0 -10 -8 -10 -18
0 -10 -9 -24 -20 -32 -11 -8 -20 -22 -20 -32 0 -10 -4 -18 -10 -18 -5 0 -10
-9 -10 -20 0 -11 -4 -20 -10 -20 -5 0 -10 -8 -10 -18 0 -10 -9 -24 -20 -32
-11 -8 -20 -22 -20 -32 0 -10 -4 -18 -10 -18 -5 0 -10 -9 -10 -20 0 -11 -4
-20 -10 -20 -5 0 -10 -9 -10 -20 0 -11 -4 -20 -10 -20 -5 0 -10 -9 -10 -20 0
-11 -4 -20 -10 -20 -5 0 -10 -9 -10 -20 0 -11 -4 -20 -10 -20 -5 0 -10 -9 -10
-20 0 -11 -4 -20 -10 -20 -5 0 -10 -13 -10 -30 0 -16 -4 -30 -10 -30 -5 0 -10
-9 -10 -20 0 -11 -4 -20 -10 -20 -5 0 -10 -13 -10 -30 0 -16 -4 -30 -10 -30
-5 0 -10 -13 -10 -30 0 -16 -4 -30 -10 -30 -5 0 -10 -13 -10 -30 0 -16 -4 -30
-10 -30 -5 0 -10 -18 -10 -40 0 -22 -4 -40 -10 -40 -5 0 -10 -18 -10 -40 0
-22 -4 -40 -10 -40 -6 0 -10 -27 -10 -60 0 -33 -4 -60 -10 -60 -6 0 -10 -72
-10 -195 0 -123 4 -195 10 -195 6 0 10 -22 10 -50 0 -27 5 -50 10 -50 6 0 10
-13 10 -30 0 -16 5 -30 10 -30 6 0 10 -13 10 -30 0 -16 5 -30 10 -30 6 0 10
-13 10 -30 0 -16 5 -30 10 -30 6 0 10 -9 10 -20 0 -11 5 -20 10 -20 6 0 10 -8
10 -18 0 -10 9 -24 20 -32 11 -8 20 -22 20 -32 0 -10 5 -18 10 -18 6 0 10 -7
10 -16 0 -9 10 -25 22 -35 l21 -19 -31 0 c-18 0 -32 -5 -32 -10 0 -6 32 -42
70 -80 39 -38 70 -76 70 -85 0 -8 7 -15 15 -15 9 0 45 -29 80 -65 36 -36 61
-65 55 -65 -5 0 -10 -5 -10 -10 0 -14 46 -60 60 -60 14 0 60 -46 60 -59 0 -6
7 -8 15 -5 15 6 45 -17 45 -35 0 -6 7 -8 15 -5 8 3 25 -5 38 -18 20 -20 21
-26 10 -37 -18 -16 -8 -30 17 -24 14 4 20 0 20 -11 0 -10 6 -13 15 -10 9 4 23
-3 34 -15 10 -11 26 -21 35 -21 9 0 16 -6 16 -14 0 -9 7 -12 20 -9 23 6 27
-15 8 -37 -7 -8 -4 -7 8 3 37 30 62 12 32 -23 -7 -8 -4 -7 8 3 27 22 52 23 30
1 -9 -8 -14 -20 -11 -24 7 -11 35 -2 35 11 0 5 7 9 16 9 10 0 14 -7 12 -22 -2
-19 1 -22 20 -20 14 2 22 -2 22 -11 0 -10 7 -13 18 -10 10 2 24 -2 31 -10 6
-8 21 -13 31 -10 13 4 20 0 20 -9 0 -10 8 -13 30 -10 32 5 41 -13 18 -37 -11
-10 -10 -11 5 -6 9 4 17 11 17 16 0 5 7 9 16 9 10 0 14 -7 12 -22 -3 -20 1
-23 30 -20 22 3 32 -1 32 -11 0 -9 9 -12 29 -9 21 3 33 -2 45 -19 9 -13 16
-18 16 -11 0 7 12 12 28 11 15 0 21 -3 15 -6 -7 -2 -13 -11 -13 -19 0 -15 8
-17 53 -14 29 2 36 -17 15 -39 -11 -10 -10 -11 5 -6 9 4 17 11 17 16 0 5 12 9
28 9 15 0 22 -3 15 -8 -6 -4 -13 -14 -15 -21 -2 -11 7 -14 40 -12 41 3 43 2
32 -18 -10 -19 -8 -21 20 -21 22 0 30 -5 30 -18 0 -10 9 -24 20 -32 11 -8 20
-22 20 -32 0 -10 6 -18 13 -19 10 0 10 -2 0 -6 -7 -2 -13 -17 -13 -33 0 -24
-5 -29 -27 -32 -26 -3 -26 -3 -8 -22 19 -19 19 -19 -13 -14 -18 2 -32 2 -32
-1 0 -11 15 -28 30 -34 8 -4 -1 -6 -20 -5 -26 2 -34 -1 -32 -12 2 -8 8 -16 13
-18 18 -7 -19 -31 -51 -34 -32 -3 -33 -4 -16 -21 17 -16 16 -17 -23 -17 -23 0
-41 -4 -41 -10 0 -6 -55 -10 -145 -10 -125 0 -145 2 -145 16 0 9 7 14 18 12
11 -2 21 1 23 7 2 6 -14 8 -38 7 -26 -2 -43 1 -43 7 0 6 -8 11 -18 11 -10 0
-24 9 -32 20 -8 11 -23 20 -33 20 -13 0 -17 6 -15 22 2 17 -1 22 -15 20 -22
-4 -51 24 -43 43 3 8 1 17 -4 20 -6 4 -10 -1 -10 -9 0 -27 -24 -18 -38 14 -8
17 -21 30 -31 30 -12 0 -17 7 -17 23 1 17 -4 21 -20 19 -15 -2 -23 6 -33 31
-10 26 -18 33 -32 30 -13 -4 -19 0 -19 11 0 9 -8 20 -17 23 -31 12 -45 33 -41
58 6 27 -25 65 -37 46 -3 -6 1 -11 9 -11 9 0 16 -7 16 -15 0 -18 -17 -20 -33
-2 -21 21 -40 65 -33 75 3 6 2 13 -4 17 -5 3 -10 -1 -10 -9 0 -9 -7 -16 -16
-16 -11 0 -15 6 -11 20 6 24 -18 51 -38 44 -15 -6 -45 17 -45 35 0 6 8 11 18
11 10 0 2 8 -18 17 -56 27 -81 63 -45 63 8 0 15 -7 15 -17 0 -21 7 -14 12 12
2 17 -2 19 -29 17 -28 -3 -33 0 -33 17 0 21 -8 25 -42 22 -14 -2 -18 5 -18 28
0 17 -4 31 -10 31 -5 0 -10 7 -10 15 0 9 -8 19 -17 22 -33 13 -64 53 -61 77 2
15 -6 34 -19 48 -12 13 -23 40 -26 63 l-4 40 -1 -42 c-2 -31 -6 -43 -17 -43
-8 0 -15 9 -15 20 0 11 -4 20 -10 20 -5 0 -10 20 -10 45 0 45 0 45 36 45 19 0
33 4 30 8 -3 5 -18 7 -34 4 -22 -3 -30 1 -39 21 -9 19 -17 23 -42 19 -29 -4
-31 -2 -31 27 0 17 -4 31 -10 31 -5 0 -10 14 -10 30 0 17 -4 30 -10 30 -5 0
-10 25 -10 55 l0 55 33 2 32 1 -31 4 c-20 3 -35 12 -41 26 -8 18 -17 21 -51
18 -37 -2 -42 0 -42 18 0 12 -4 21 -10 21 -6 0 -10 27 -10 60 0 33 -4 60 -10
60 -5 0 -10 14 -10 30 0 17 -4 30 -10 30 -5 0 -10 14 -10 30 0 17 -4 30 -10
30 -5 0 -10 14 -10 30 0 17 -4 30 -10 30 -5 0 -10 23 -10 50 0 28 -4 50 -10
50 -5 0 -10 14 -10 30 0 17 -4 30 -10 30 -5 0 -10 9 -10 20 0 11 -4 20 -10 20
-5 0 -10 18 -10 40 0 22 -4 40 -10 40 -6 0 -10 27 -10 60 0 33 -4 60 -10 60
-5 0 -10 23 -10 50 0 28 -4 50 -10 50 -6 0 -10 30 -10 70 0 40 -4 70 -10 70
-6 0 -10 62 -10 165 0 103 4 165 10 165 6 0 10 23 10 50 0 28 5 50 10 50 6 0
10 18 10 40 0 22 5 40 10 40 6 0 10 14 10 30 0 17 5 30 10 30 6 0 10 14 10 30
0 17 5 30 10 30 6 0 10 9 10 20 0 11 5 20 10 20 6 0 10 9 10 20 0 11 5 20 10
20 6 0 10 8 10 18 0 10 9 24 20 32 11 8 20 21 20 28 0 8 14 27 30 42 17 15 30
36 30 45 0 11 7 15 23 13 16 -2 21 1 19 14 -3 19 79 108 99 108 6 0 24 14 39
30 15 17 35 30 44 30 9 0 16 5 16 10 0 6 8 10 18 10 10 0 24 9 32 20 8 11 22
20 32 20 10 0 18 5 18 10 0 6 9 10 20 10 11 0 20 5 20 10 0 6 18 10 40 10 22
0 40 5 40 10 0 16 99 12 116 -4z m1539 -296 c28 -6 65 -14 83 -17 18 -3 35 -9
38 -14 3 -5 13 -9 23 -9 10 0 31 -6 47 -14 16 -8 47 -22 69 -32 83 -37 213
-132 296 -215 99 -98 166 -194 228 -324 24 -49 47 -98 52 -107 5 -10 9 -25 9
-33 0 -8 4 -23 9 -33 11 -21 27 -100 42 -215 22 -162 -18 -380 -104 -557 -108
-225 -298 -423 -502 -528 -147 -75 -236 -101 -414 -123 -142 -17 -318 2 -476
53 -196 63 -407 216 -535 387 -75 100 -190 345 -190 404 0 10 -4 25 -9 35 -5
9 -15 63 -22 118 -12 101 -8 213 11 324 5 30 12 72 16 93 3 20 10 40 15 43 5
3 9 14 9 25 0 10 4 27 9 37 5 9 24 49 42 87 89 187 267 386 428 477 94 54 189
98 212 98 10 0 21 5 24 10 3 6 16 10 27 10 12 0 35 4 52 10 17 5 51 13 76 19
59 12 370 6 435 -9z m1720 -1385 c19 -19 35 -41 35 -50 0 -8 5 -15 10 -15 6 0
10 -9 10 -20 0 -11 5 -20 10 -20 6 0 10 -9 10 -20 0 -11 5 -20 10 -20 6 0 10
-13 10 -30 0 -16 5 -30 10 -30 6 0 10 -9 10 -20 0 -11 5 -20 10 -20 6 0 10
-13 10 -30 0 -16 5 -30 10 -30 6 0 10 -13 10 -30 0 -16 5 -30 11 -30 7 0 10
-15 7 -40 -3 -29 0 -40 10 -40 10 0 13 -9 10 -30 -3 -18 1 -35 9 -41 18 -15
17 -54 -2 -69 -14 -12 -14 -15 1 -31 11 -12 15 -30 12 -54 -3 -25 0 -35 10
-35 11 0 13 -12 10 -50 -2 -35 1 -50 10 -50 15 0 16 -22 0 -38 -15 -15 -11
-114 5 -124 9 -6 9 -8 0 -8 -9 0 -13 -19 -13 -60 0 -53 -2 -60 -20 -60 -21 0
-23 -5 -20 -61 1 -21 -5 -41 -14 -48 -8 -7 -12 -19 -9 -27 6 -16 -15 -46 -27
-39 -5 3 -11 1 -15 -5 -3 -5 1 -10 9 -10 9 0 16 -5 16 -11 0 -13 -38 -49 -52
-49 -4 0 -8 -7 -8 -15 0 -8 -9 -15 -20 -15 -20 0 -24 -9 -20 -43 1 -13 -4 -18
-17 -17 -34 4 -43 0 -43 -20 0 -11 -7 -20 -15 -20 -8 0 -15 7 -15 16 0 8 -5
12 -10 9 -6 -4 -8 -10 -5 -15 2 -4 -9 -13 -25 -20 -17 -7 -30 -17 -30 -22 0
-5 -18 -8 -39 -7 -21 2 -46 -3 -54 -9 -9 -8 -26 -10 -41 -6 -21 5 -26 2 -27
-12 0 -11 -3 -14 -6 -6 -6 15 -73 16 -73 1 0 -6 -7 -3 -16 5 -16 17 -24 19
-64 17 -14 -1 -38 7 -53 19 -15 12 -27 17 -27 12 0 -6 6 -13 13 -15 6 -3 -9
-6 -35 -6 -36 -1 -48 3 -48 14 0 8 -12 18 -27 21 -15 4 -37 17 -50 30 -12 12
-32 25 -43 29 -11 3 -21 14 -21 23 -1 15 -2 15 -6 -1 -7 -27 -30 -20 -36 13
-4 17 -13 30 -21 30 -7 0 -16 9 -19 20 -3 11 -12 20 -21 20 -9 0 -16 7 -16 15
0 8 7 15 17 15 15 0 15 1 0 18 -10 10 -17 28 -17 40 0 14 6 22 17 22 15 0 15
1 0 18 -20 22 -22 42 -4 42 9 0 12 11 9 35 -4 29 1 40 31 70 24 24 33 41 30
55 -3 11 0 20 6 20 6 0 11 7 11 15 0 8 20 35 44 61 26 27 42 52 39 60 -3 8 8
27 26 44 17 17 31 36 31 43 0 6 23 34 50 60 28 27 50 55 50 62 0 7 6 18 14 24
8 7 12 20 9 31 -3 12 3 23 16 32 12 7 21 21 21 30 0 10 4 18 8 18 5 0 15 12
23 28 17 33 34 52 48 52 6 0 8 7 5 15 -6 15 17 45 35 45 6 0 8 7 5 15 -6 15
17 45 34 45 6 0 8 9 5 20 -4 14 0 20 11 20 9 0 13 6 10 15 -6 15 17 45 35 45
6 0 8 7 5 15 -4 9 3 23 15 34 11 10 21 25 21 32 0 8 9 21 20 29 11 8 20 20 20
27 0 20 62 82 83 82 10 1 33 -15 52 -34z m-2402 -1972 c-23 -2 -64 -2 -90 0
-26 2 -7 3 42 3 50 0 71 -1 48 -3z"/>
<path d="M30069 4123 c-13 -16 -12 -17 4 -4 16 13 21 21 13 21 -2 0 -10 -8
-17 -17z"/>
<path d="M30013 4000 c0 -30 2 -43 4 -27 2 15 2 39 0 55 -2 15 -4 2 -4 -28z"/>
<path d="M30605 4030 c3 -5 8 -10 11 -10 2 0 4 5 4 10 0 6 -5 10 -11 10 -5 0
-7 -4 -4 -10z"/>
<path d="M30030 3900 c0 -5 5 -10 11 -10 5 0 7 5 4 10 -3 6 -8 10 -11 10 -2 0
-4 -4 -4 -10z"/>
<path d="M30705 3440 c-3 -5 -1 -10 4 -10 6 0 11 5 11 10 0 6 -2 10 -4 10 -3
0 -8 -4 -11 -10z"/>
<path d="M30687 3343 c-2 -5 -1 -19 4 -33 7 -23 7 -23 8 8 1 31 -3 40 -12 25z"/>
<path d="M30386 3325 c4 -8 11 -15 16 -15 6 0 5 6 -2 15 -7 8 -14 15 -16 15
-2 0 -1 -7 2 -15z"/>
<path d="M30435 3260 c11 -14 23 -27 26 -30 3 -3 8 -12 11 -20 3 -9 7 -10 11
-4 3 6 -10 26 -31 45 -23 21 -29 25 -17 9z"/>
<path d="M30665 3261 c-3 -5 -1 -12 5 -16 5 -3 10 1 10 9 0 18 -6 21 -15 7z"/>
<path d="M30646 3222 c-2 -4 -1 -14 5 -22 7 -12 9 -10 9 8 0 23 -5 28 -14 14z"/>
<path d="M30515 3180 c-18 -8 -17 -9 8 -9 16 -1 26 3 22 9 -3 6 -7 10 -8 9 -1
0 -11 -4 -22 -9z"/>
<path d="M30605 3180 c-4 -6 3 -10 14 -10 25 0 27 6 6 13 -8 4 -17 2 -20 -3z"/>
<path d="M30563 3153 c9 -2 23 -2 30 0 6 3 -1 5 -18 5 -16 0 -22 -2 -12 -5z"/>
<path d="M27243 3993 c15 -2 39 -2 55 0 15 2 2 4 -28 4 -30 0 -43 -2 -27 -4z"/>
<path d="M27170 3976 c0 -9 30 -14 35 -6 4 6 -3 10 -14 10 -12 0 -21 -2 -21
-4z"/>
<path d="M27325 3970 c3 -5 8 -10 11 -10 2 0 4 5 4 10 0 6 -5 10 -11 10 -5 0
-7 -4 -4 -10z"/>
<path d="M27126 3945 c-11 -8 -17 -17 -14 -20 2 -3 13 4 23 15 21 23 18 25 -9
5z"/>
<path d="M27353 3910 c0 -30 2 -43 4 -27 2 15 2 39 0 55 -2 15 -4 2 -4 -28z"/>
<path d="M27031 3889 c-13 -11 -22 -22 -19 -24 2 -3 15 6 28 20 28 30 24 32
-9 4z"/>
<path d="M26935 3808 l-40 -43 43 40 c39 36 47 45 39 45 -2 0 -21 -19 -42 -42z"/>
<path d="M27325 3841 c-3 -5 -1 -12 5 -16 5 -3 10 1 10 9 0 18 -6 21 -15 7z"/>
<path d="M27305 3801 c-3 -5 -1 -12 5 -16 5 -3 10 1 10 9 0 18 -6 21 -15 7z"/>
<path d="M27285 3760 c-3 -5 -1 -10 4 -10 6 0 11 5 11 10 0 6 -2 10 -4 10 -3
0 -8 -4 -11 -10z"/>
<path d="M26826 3682 l-30 -37 37 34 c38 36 42 42 30 40 -5 0 -21 -17 -37 -37z"/>
<path d="M27250 3685 c-7 -9 -8 -15 -2 -15 5 0 12 7 16 15 3 8 4 15 2 15 -2 0
-9 -7 -16 -15z"/>
<path d="M26766 3604 c-5 -14 -4 -15 9 -4 17 14 19 20 6 20 -5 0 -12 -7 -15
-16z"/>
<path d="M27190 3585 c-7 -9 -8 -15 -2 -15 5 0 12 7 16 15 3 8 4 15 2 15 -2 0
-9 -7 -16 -15z"/>
<path d="M27165 3540 c-3 -5 -1 -10 4 -10 6 0 11 5 11 10 0 6 -2 10 -4 10 -3
0 -8 -4 -11 -10z"/>
<path d="M26630 3189 c0 -5 5 -7 10 -4 6 3 10 8 10 11 0 2 -4 4 -10 4 -5 0
-10 -5 -10 -11z"/>
<path d="M26925 3000 c-3 -5 -1 -10 4 -10 6 0 11 5 11 10 0 6 -2 10 -4 10 -3
0 -8 -4 -11 -10z"/>
<path d="M26630 2900 c0 -29 2 -51 4 -49 8 8 10 88 3 95 -4 4 -7 -17 -7 -46z"/>
<path d="M26906 2942 c-2 -4 -1 -14 5 -22 7 -12 9 -10 9 8 0 23 -5 28 -14 14z"/>
<path d="M26650 2751 c0 -23 2 -41 4 -41 8 0 12 71 4 76 -4 3 -8 -13 -8 -35z"/>
<path d="M26867 2783 c-2 -5 -1 -19 4 -33 7 -23 7 -23 8 8 1 31 -3 40 -12 25z"/>
<path d="M26848 2723 c-2 -5 0 -42 3 -83 l5 -75 2 83 c2 74 -1 96 -10 75z"/>
<path d="M26670 2671 c0 -25 6 -27 13 -6 4 8 2 17 -3 20 -6 4 -10 -3 -10 -14z"/>
<path d="M26690 2631 c0 -25 6 -27 13 -6 4 8 2 17 -3 20 -6 4 -10 -3 -10 -14z"/>
<path d="M26710 2581 c0 -17 2 -31 4 -31 8 0 13 51 5 56 -5 3 -9 -9 -9 -25z"/>
<path d="M26806 2562 c-10 -16 9 -30 21 -17 10 10 9 14 -2 19 -8 3 -16 2 -19
-2z"/>
<path d="M26730 2540 c0 -5 5 -10 11 -10 5 0 7 5 4 10 -3 6 -8 10 -11 10 -2 0
-4 -4 -4 -10z"/>
<path d="M26763 2513 c9 -2 23 -2 30 0 6 3 -1 5 -18 5 -16 0 -22 -2 -12 -5z"/>
<path d="M26938 1933 c7 -3 16 -2 19 1 4 3 -2 6 -13 5 -11 0 -14 -3 -6 -6z"/>
<path d="M26966 1904 c-6 -15 -4 -15 11 -3 10 7 20 15 22 16 2 2 -3 3 -11 3
-9 0 -19 -7 -22 -16z"/>
<path d="M27012 1875 c0 -16 2 -22 5 -12 2 9 2 23 0 30 -3 6 -5 -1 -5 -18z"/>
<path d="M27058 1693 c7 -3 16 -2 19 1 4 3 -2 6 -13 5 -11 0 -14 -3 -6 -6z"/>
<path d="M27032 1650 c0 -19 2 -27 5 -17 2 9 2 25 0 35 -3 9 -5 1 -5 -18z"/>
<path d="M27084 1672 c5 -8 76 -4 76 4 0 2 -18 4 -41 4 -22 0 -38 -4 -35 -8z"/>
<path d="M27185 1630 c15 -16 33 -26 39 -23 6 4 5 8 -4 11 -8 3 -22 13 -31 24
-9 10 -20 18 -25 18 -4 0 5 -13 21 -30z"/>
<path d="M27255 1580 c10 -11 20 -20 23 -20 3 0 -3 9 -13 20 -10 11 -20 20
-23 20 -3 0 3 -9 13 -20z"/>
<path d="M27160 1540 l-35 -7 43 -2 c27 0 41 3 37 9 -3 6 -7 9 -8 9 -1 -1 -18
-5 -37 -9z"/>
<path d="M27256 1520 c-11 -3 -15 -9 -10 -13 10 -6 42 9 34 16 -3 3 -14 1 -24
-3z"/>
<path d="M27130 1509 c0 -5 5 -7 10 -4 6 3 10 8 10 11 0 2 -4 4 -10 4 -5 0
-10 -5 -10 -11z"/>
<path d="M27285 1490 c3 -5 12 -7 20 -3 21 7 19 13 -6 13 -11 0 -18 -4 -14
-10z"/>
<path d="M27334 1461 c20 -22 26 -25 26 -13 0 4 -10 13 -22 21 -23 14 -23 14
-4 -8z"/>
<path d="M27205 1380 c-16 -4 -22 -8 -12 -9 13 -1 17 -11 19 -38 l1 -38 4 35
c3 19 9 41 15 47 6 7 9 12 7 12 -2 -1 -17 -5 -34 -9z"/>
<path d="M27525 1290 c4 -6 11 -8 16 -5 14 9 11 15 -7 15 -8 0 -12 -5 -9 -10z"/>
<path d="M27287 1243 c-2 -5 -1 -17 3 -27 6 -19 7 -19 12 2 6 21 -6 40 -15 25z"/>
<path d="M27441 1041 c-10 -6 -9 -10 3 -14 8 -3 18 -2 21 3 8 13 -9 20 -24 11z"/>
<path d="M28495 750 c-3 -6 1 -7 9 -4 18 7 21 14 7 14 -6 0 -13 -4 -16 -10z"/>
<path d="M28525 720 c-3 -5 -1 -10 4 -10 6 0 11 5 11 10 0 6 -2 10 -4 10 -3 0
-8 -4 -11 -10z"/>
<path d="M28551 684 c0 -11 3 -14 6 -6 3 7 2 16 -1 19 -3 4 -6 -2 -5 -13z"/>
<path d="M27970 520 c0 -5 5 -10 11 -10 5 0 7 5 4 10 -3 6 -8 10 -11 10 -2 0
-4 -4 -4 -10z"/>
<path d="M28445 510 c3 -5 8 -10 11 -10 2 0 4 5 4 10 0 6 -5 10 -11 10 -5 0
-7 -4 -4 -10z"/>
<path d="M28010 501 c0 -5 7 -12 16 -15 14 -5 15 -4 4 9 -14 17 -20 19 -20 6z"/>
<path d="M30593 2293 c15 -2 37 -2 50 0 12 2 0 4 -28 4 -27 0 -38 -2 -22 -4z"/>
<path d="M30535 2256 c-71 -80 -74 -92 -5 -21 24 25 40 45 35 44 -6 0 -19 -10
-30 -23z"/>
<path d="M30695 2240 c21 -22 41 -38 43 -35 5 5 -65 75 -75 75 -4 0 10 -18 32
-40z"/>
<path d="M30030 926 c0 -4 7 -14 15 -22 8 -9 15 -11 15 -6 0 5 -7 15 -15 22
-8 7 -15 9 -15 6z"/>
<path d="M30525 860 c-3 -5 -1 -10 4 -10 6 0 11 5 11 10 0 6 -2 10 -4 10 -3 0
-8 -4 -11 -10z"/>
<path d="M14595 5200 c-258 -26 -514 -105 -709 -217 -153 -88 -315 -213 -410
-316 -59 -65 -92 -103 -117 -137 -15 -19 -36 -45 -47 -58 -11 -12 -43 -58 -72
-102 -29 -44 -57 -77 -62 -74 -6 4 -9 158 -7 403 l2 396 -864 3 -864 2 0
-2460 0 -2460 865 2 865 3 -4 1105 c-3 1101 -1 1199 31 1405 54 347 203 625
422 789 140 105 280 162 491 201 95 17 428 20 519 4 170 -29 317 -71 425 -120
35 -16 65 -28 67 -27 1 2 4 371 5 821 2 612 0 820 -9 829 -15 15 -400 20 -527
8z m-1954 -1010 c34 0 49 -4 49 -13 0 -9 10 -12 30 -9 18 3 30 0 30 -7 0 -6 9
-11 20 -11 11 0 20 -6 20 -14 0 -9 8 -12 24 -9 19 4 35 -5 71 -42 28 -28 44
-52 41 -61 -3 -8 1 -14 9 -14 8 0 15 -9 15 -20 0 -11 5 -20 10 -20 6 0 10 -13
10 -30 0 -16 5 -30 10 -30 6 0 10 -11 10 -25 0 -14 -4 -25 -10 -25 -5 0 -10
-13 -10 -30 0 -16 -4 -30 -10 -30 -5 0 -10 -13 -10 -29 0 -16 -7 -34 -15 -41
-8 -7 -12 -16 -9 -22 6 -10 -21 -74 -35 -83 -5 -3 -7 -14 -4 -25 4 -14 0 -20
-11 -20 -9 0 -13 -6 -10 -15 6 -15 -17 -45 -34 -45 -6 0 -8 -9 -5 -20 4 -14 0
-20 -10 -20 -10 0 -13 -6 -10 -20 4 -14 0 -20 -11 -20 -9 0 -13 -6 -10 -14 3
-8 -6 -27 -19 -42 -14 -15 -23 -33 -20 -40 2 -7 -5 -23 -16 -35 -12 -13 -21
-28 -21 -35 0 -6 -6 -17 -14 -23 -8 -7 -12 -21 -9 -31 4 -14 0 -20 -10 -20
-10 0 -13 -6 -10 -20 4 -14 0 -20 -10 -20 -10 0 -13 -6 -10 -20 4 -14 0 -20
-10 -20 -10 0 -13 -6 -10 -20 4 -14 0 -20 -11 -20 -9 0 -13 -6 -10 -15 3 -8
-1 -21 -9 -30 -8 -8 -13 -24 -10 -35 3 -11 0 -20 -6 -20 -6 0 -11 -9 -11 -20
0 -11 -6 -20 -13 -20 -9 0 -12 -10 -9 -30 3 -18 0 -30 -7 -30 -6 0 -11 -13
-11 -30 0 -16 -4 -30 -10 -30 -5 0 -10 -9 -10 -20 0 -11 -6 -20 -13 -20 -9 0
-11 -12 -9 -40 3 -25 0 -40 -7 -40 -6 0 -11 -13 -11 -30 0 -16 -4 -30 -10 -30
-5 0 -10 -13 -10 -30 0 -16 -4 -30 -10 -30 -5 0 -10 -18 -10 -40 0 -22 -4 -40
-10 -40 -5 0 -10 -22 -10 -50 0 -27 -4 -50 -10 -50 -5 0 -10 -13 -10 -30 0
-16 -4 -30 -10 -30 -5 0 -10 -9 -10 -20 0 -11 -4 -20 -10 -20 -6 0 -10 -36
-10 -88 0 -76 -3 -89 -20 -102 -11 -8 -20 -22 -20 -32 0 -10 -4 -18 -10 -18
-6 0 -10 -28 -10 -65 0 -55 -4 -70 -23 -89 -18 -18 -25 -20 -35 -10 -7 7 -12
20 -12 29 0 8 -4 15 -10 15 -5 0 -10 14 -10 30 0 17 -4 30 -10 30 -6 0 -10 40
-10 100 0 60 -4 100 -10 100 -5 0 -10 18 -10 40 0 22 -4 40 -10 40 -5 0 -10
14 -10 30 0 17 -4 30 -10 30 -6 0 -10 43 -10 110 0 67 -4 110 -10 110 -6 0
-10 30 -10 70 0 40 -4 70 -10 70 -6 0 -10 33 -10 80 0 47 -4 80 -10 80 -6 0
-10 47 -10 120 0 73 -4 120 -10 120 -6 0 -10 92 -10 255 0 163 4 255 10 255 6
0 10 27 10 60 0 43 4 60 13 60 9 0 12 11 9 36 -3 23 0 39 9 45 8 4 12 22 11
43 -2 26 1 36 12 36 9 0 12 7 9 20 -4 14 0 20 10 20 10 0 13 6 10 20 -3 11 0
20 6 20 6 0 11 9 11 20 0 11 6 20 14 20 10 0 12 7 8 22 -4 18 -2 20 16 16 12
-4 22 -2 22 3 0 16 88 99 105 99 8 0 15 5 15 10 0 6 18 10 40 10 22 0 40 5 40
10 0 6 33 10 80 10 57 0 80 4 81 13 0 10 2 10 6 0 3 -8 24 -13 54 -13z"/>
<path d="M12450 2705 c-7 -9 -8 -15 -2 -15 5 0 12 7 16 15 3 8 4 15 2 15 -2 0
-9 -7 -16 -15z"/>
<path d="M12130 2571 c0 -25 6 -27 13 -6 4 8 2 17 -3 20 -6 4 -10 -3 -10 -14z"/>
<path d="M12385 2521 c-3 -5 -1 -12 5 -16 5 -3 10 1 10 9 0 18 -6 21 -15 7z"/>
<path d="M12150 2425 c0 -49 2 -86 4 -84 7 7 10 159 3 166 -4 3 -7 -33 -7 -82z"/>
<path d="M12368 2483 c-2 -5 -1 -26 3 -48 l6 -40 2 48 c1 44 -3 57 -11 40z"/>
<path d="M12326 2382 c-10 -16 9 -30 21 -17 10 10 9 14 -2 19 -8 3 -16 2 -19
-2z"/>
<path d="M12308 2343 c-2 -5 -1 -33 3 -63 l6 -55 1 63 c2 57 -1 74 -10 55z"/>
<path d="M12170 2311 c0 -25 6 -27 13 -6 4 8 2 17 -3 20 -6 4 -10 -3 -10 -14z"/>
<path d="M12190 2271 c0 -25 6 -27 13 -6 4 8 2 17 -3 20 -6 4 -10 -3 -10 -14z"/>
<path d="M12210 2240 c0 -5 5 -10 11 -10 5 0 7 5 4 10 -3 6 -8 10 -11 10 -2 0
-4 -4 -4 -10z"/>
<path d="M12248 2213 c12 -2 30 -2 40 0 9 3 -1 5 -23 4 -22 0 -30 -2 -17 -4z"/>
<path d="M5692 5092 c-10 -7 -12 -339 -9 -1708 3 -1561 5 -1706 21 -1779 9
-44 18 -93 20 -110 2 -16 9 -43 15 -58 6 -16 9 -33 6 -37 -3 -5 4 -24 15 -42
11 -18 20 -43 20 -56 0 -12 11 -45 25 -72 14 -27 25 -57 25 -67 0 -10 7 -31
15 -47 8 -15 15 -34 15 -41 0 -7 9 -24 20 -38 11 -14 20 -30 20 -36 0 -6 15
-34 34 -62 19 -27 38 -58 41 -69 4 -11 13 -20 21 -20 8 0 14 -6 14 -12 0 -23
59 -102 127 -172 167 -169 473 -361 698 -437 22 -7 44 -17 49 -21 6 -4 20 -8
32 -8 13 0 25 -4 28 -9 3 -5 18 -11 33 -14 16 -3 46 -11 68 -17 22 -6 57 -16
78 -21 20 -5 56 -14 80 -20 93 -23 236 -48 322 -56 33 -2 65 -9 70 -13 6 -5
44 -5 85 -1 l75 8 -57 2 c-32 0 -57 4 -56 9 5 19 -23 86 -43 103 -13 11 -17
19 -9 19 7 0 23 -8 34 -18 12 -10 9 -4 -7 16 -15 19 -27 37 -27 42 0 5 -6 15
-13 22 -6 7 -17 27 -23 43 -6 17 -16 29 -22 28 -11 -3 -17 23 -13 54 1 7 -7 9
-20 6 -19 -5 -21 -3 -17 15 4 12 2 22 -4 22 -17 0 -39 29 -36 47 2 13 -3 17
-19 15 -17 -2 -20 1 -16 18 4 14 1 20 -11 20 -12 0 -16 7 -14 23 2 17 -1 21
-18 19 -16 -2 -20 3 -20 20 1 19 -4 23 -24 21 -14 -1 -19 0 -12 3 19 9 14 34
-6 34 -11 0 -23 13 -31 34 -11 26 -19 33 -35 30 -11 -3 -15 -2 -8 2 17 8 15
34 -4 34 -19 0 -42 22 -37 36 2 6 -1 22 -6 35 -7 17 -10 19 -10 7 -2 -36 -27
-17 -41 30 -8 27 -16 40 -18 30 -5 -23 -34 -23 -31 -1 3 33 -1 43 -17 43 -8 0
-21 6 -28 13 -17 17 -28 64 -17 71 12 8 8 37 -5 35 -5 -1 -8 -10 -6 -21 2 -11
-3 -18 -14 -18 -11 0 -15 6 -11 20 3 10 -2 25 -10 31 -8 7 -13 25 -11 40 1 16
-2 27 -7 26 -5 -1 -8 -10 -7 -20 2 -10 -3 -17 -13 -17 -12 0 -15 9 -13 36 2
39 -12 55 -44 46 -17 -4 -20 0 -18 34 3 58 1 64 -16 64 -27 0 -44 27 -44 70 0
43 -17 70 -44 70 -10 0 -16 9 -16 25 0 14 5 25 10 25 6 0 10 7 10 16 0 20 24
44 44 44 9 0 16 7 16 15 0 10 -10 15 -30 15 -16 0 -30 5 -30 10 0 6 -13 10
-30 10 -20 0 -30 5 -30 15 0 8 9 15 20 15 13 0 20 7 20 20 0 11 7 20 15 20 8
0 15 -4 15 -10 0 -5 13 -10 28 -10 16 0 34 -8 42 -20 8 -11 21 -20 28 -20 8 0
26 -13 41 -29 15 -16 36 -31 46 -34 15 -3 13 -5 -7 -6 -16 0 -28 4 -28 9 0 6
-7 10 -15 10 -8 0 -15 -5 -15 -11 0 -14 26 -39 40 -39 7 0 25 -13 40 -30 15
-16 34 -30 42 -30 7 0 20 -9 28 -20 8 -11 20 -20 28 -20 15 0 62 -44 62 -59 0
-6 7 -8 15 -5 8 3 21 0 28 -8 12 -11 12 -16 -2 -28 -14 -13 -14 -15 2 -18 9
-2 17 -9 17 -17 0 -8 7 -11 20 -8 14 4 20 0 20 -11 0 -9 6 -13 15 -10 9 4 27
-6 44 -25 16 -17 37 -31 46 -31 12 0 16 -6 12 -19 -6 -23 27 -59 38 -42 3 6
-1 11 -9 11 -9 0 -16 7 -16 15 0 8 7 15 15 15 8 0 15 -4 15 -10 0 -5 9 -10 21
-10 19 0 19 -1 5 -16 -9 -8 -14 -20 -11 -25 8 -12 11 -12 30 8 16 15 17 15 13
-8 -2 -20 1 -23 20 -21 15 2 22 -2 22 -13 0 -9 5 -13 11 -10 10 7 74 -19 84
-34 3 -5 14 -7 25 -4 14 4 20 0 20 -11 0 -10 6 -13 15 -10 8 4 23 0 32 -7 8
-8 27 -12 40 -11 13 2 31 -2 40 -9 8 -8 25 -13 36 -14 12 0 27 -11 34 -25 9
-18 13 -20 13 -7 0 10 8 17 20 17 26 0 71 -21 65 -31 -3 -4 -1 -10 5 -14 5 -3
10 1 10 9 0 24 58 20 100 -6 39 -24 60 -31 60 -18 0 5 -10 11 -22 13 -13 3 88
5 224 5 160 1 254 5 268 12 11 6 37 10 58 9 20 -2 47 3 60 10 13 7 33 11 46 9
13 -1 30 3 39 11 9 7 22 11 29 8 7 -2 26 2 41 10 16 8 35 12 42 9 8 -3 19 2
26 10 7 9 21 13 31 11 10 -3 20 -1 23 3 7 12 65 40 82 40 7 0 13 10 14 23 0
12 3 16 6 10 8 -21 33 -15 33 7 0 12 7 20 16 20 9 0 24 8 33 18 9 9 37 28 64
41 26 13 47 28 47 33 0 4 6 8 13 8 7 0 23 9 35 20 12 11 25 20 31 20 5 0 7 10
5 23 -2 12 -2 16 2 10 8 -18 31 -16 38 2 3 9 0 15 -10 15 -14 0 -14 2 0 15 8
8 20 15 26 15 6 0 41 31 79 69 37 37 73 70 81 73 11 3 11 7 -2 18 -13 12 -5
23 59 87 40 40 77 73 83 73 5 0 7 7 4 15 -6 14 37 65 55 65 5 0 7 9 4 20 -3
11 0 20 6 20 6 0 11 11 11 25 0 14 -4 25 -10 25 -17 0 -11 25 10 40 11 8 20
22 20 32 0 10 5 18 10 18 6 0 10 14 10 30 0 17 5 30 10 30 6 0 10 9 10 20 0
11 5 20 10 20 6 0 10 13 10 28 0 16 8 34 20 42 12 8 20 26 20 42 0 15 5 28 10
28 6 0 10 23 10 50 0 43 3 50 20 50 18 0 20 7 20 80 0 73 2 80 20 80 19 0 20
7 20 140 l0 140 30 0 30 0 0 280 0 280 55 0 55 0 0 -676 c0 -671 0 -676 -20
-671 -11 3 -23 1 -26 -5 -3 -5 -16 -13 -28 -18 -17 -7 -17 -9 -3 -9 13 -1 17
-10 17 -46 0 -25 -4 -45 -10 -45 -6 0 -10 -27 -10 -60 0 -33 -4 -60 -10 -60
-5 0 -10 -8 -10 -19 0 -16 -20 -26 -72 -35 -16 -3 -20 -16 -5 -16 13 0 17 -10
17 -45 0 -25 -4 -45 -10 -45 -5 0 -10 -9 -10 -20 0 -11 -7 -20 -15 -20 -8 0
-15 -5 -15 -10 0 -6 -15 -17 -32 -25 -19 -8 -26 -14 -15 -15 11 0 17 -8 17
-25 0 -14 -4 -25 -10 -25 -5 0 -10 -8 -10 -18 0 -11 -13 -23 -33 -31 -28 -11
-33 -18 -29 -37 4 -23 -17 -54 -36 -54 -5 0 -16 -7 -23 -16 -7 -9 -22 -20 -34
-24 -17 -7 -17 -9 -2 -9 38 -2 14 -36 -45 -64 -41 -20 -53 -33 -38 -42 5 -3
10 1 10 9 0 9 7 16 15 16 36 0 8 -39 -40 -55 -21 -8 -29 -16 -27 -30 1 -13 -6
-24 -19 -30 -13 -6 -27 -19 -33 -30 -17 -30 -33 -45 -50 -45 -16 0 -20 -10
-17 -43 2 -11 -5 -17 -18 -17 -12 0 -21 -7 -21 -16 0 -20 -24 -44 -44 -44 -9
0 -16 -8 -16 -20 0 -11 -7 -20 -15 -20 -9 0 -18 -12 -21 -29 -4 -17 -14 -31
-25 -34 -10 -3 -19 -12 -19 -21 0 -9 -8 -16 -20 -16 -22 0 -27 -25 -7 -34 6
-3 1 -4 -13 -3 -20 2 -25 -2 -24 -21 1 -18 -4 -22 -18 -19 -10 3 -18 0 -17 -6
3 -26 -2 -37 -17 -37 -11 0 -15 -6 -11 -20 4 -15 0 -20 -14 -20 -19 0 -23 -9
-19 -44 1 -15 -3 -18 -19 -13 -13 3 -21 1 -20 -6 5 -41 -2 -59 -20 -54 -14 3
-18 -2 -19 -26 0 -16 -5 -33 -10 -36 -15 -10 -40 -65 -35 -79 3 -7 -4 -21 -16
-31 -12 -10 -21 -30 -21 -45 0 -20 -5 -26 -22 -27 -22 -1 -22 -1 2 -8 68 -21
80 -22 80 -6 0 18 12 19 27 4 7 -7 16 -8 29 0 11 5 49 13 87 16 37 4 67 10 67
13 0 4 15 7 33 7 17 -1 39 2 47 6 8 4 42 13 75 19 33 7 70 16 83 21 13 5 36 9
52 9 16 0 31 4 34 9 3 5 30 15 58 21 29 7 58 16 63 20 6 4 27 10 47 13 20 3
49 14 65 25 15 11 46 23 68 27 21 4 51 15 66 26 15 10 30 19 33 19 27 0 305
210 405 305 99 95 211 241 275 357 62 115 128 275 146 358 5 19 15 60 23 90
15 59 30 145 46 275 6 50 11 696 13 1735 l2 1655 -868 3 -868 2 7 -1402 c6
-1365 4 -1539 -24 -1668 -21 -97 -25 -109 -74 -220 -45 -100 -177 -237 -282
-292 -148 -78 -292 -108 -511 -108 -154 0 -253 14 -369 52 -187 61 -327 178
-405 338 -17 36 -35 73 -41 82 -5 10 -9 25 -9 33 0 8 -4 23 -9 33 -5 9 -14 40
-19 67 -34 161 -35 208 -30 1654 l6 1431 -857 0 c-471 0 -862 -4 -869 -8z"/>
<path d="M20040 5095 c0 -2 46 -91 102 -197 55 -106 131 -251 168 -323 37 -71
82 -157 100 -190 50 -91 299 -575 737 -1435 135 -263 211 -412 397 -772 117
-227 255 -498 376 -733 56 -110 144 -281 195 -380 51 -99 155 -301 231 -450
76 -148 157 -306 180 -350 l43 -80 582 0 582 0 60 115 c32 63 109 212 169 330
61 118 116 224 123 236 7 11 55 101 105 200 112 217 236 457 300 579 26 50 80
153 120 230 108 208 192 370 264 508 35 67 103 199 151 292 48 94 116 224 150
290 113 218 207 398 280 540 40 77 96 185 125 240 29 55 83 159 120 230 37 72
93 178 124 238 31 59 80 153 110 210 105 200 149 283 206 387 97 178 150 278
150 284 0 3 -434 6 -965 6 l-965 0 -14 -22 c-13 -20 -102 -210 -176 -373 -12
-27 -45 -97 -72 -155 -99 -208 -117 -247 -181 -385 -36 -77 -85 -183 -110
-235 -50 -106 -183 -390 -229 -490 -17 -36 -48 -103 -70 -150 -22 -47 -56
-119 -75 -160 -20 -41 -53 -113 -75 -160 -22 -47 -44 -94 -48 -105 -7 -19 -19
-45 -101 -222 -19 -40 -39 -73 -45 -73 -6 0 -16 12 -23 28 -8 15 -17 35 -22
44 -5 10 -9 25 -9 33 0 8 -4 15 -10 15 -5 0 -10 6 -10 14 0 8 -8 31 -19 53
-10 21 -33 70 -51 108 -47 100 -90 194 -111 240 -10 22 -36 80 -58 128 -23 49
-41 91 -41 94 0 3 -18 44 -41 91 -23 48 -54 114 -69 147 -41 90 -84 181 -123
265 -19 41 -49 107 -67 145 -18 39 -43 93 -55 120 -13 28 -116 253 -229 500
-114 248 -212 461 -219 475 l-13 25 -977 3 c-537 1 -977 0 -977 -3z m2250
-2315 c0 -5 14 -10 30 -10 17 0 30 -4 30 -10 0 -5 9 -10 20 -10 11 0 20 -4 20
-10 0 -5 9 -10 20 -10 11 0 20 -4 20 -10 0 -5 9 -10 20 -10 11 0 20 -4 20 -10
0 -5 9 -10 20 -10 11 0 20 -4 20 -10 0 -5 7 -10 16 -10 17 0 44 -23 44 -38 0
-6 9 -8 20 -5 14 4 20 0 20 -10 0 -10 6 -13 20 -10 14 4 20 0 20 -10 0 -10 6
-13 20 -10 14 4 20 0 20 -10 0 -10 6 -13 20 -10 14 4 20 0 20 -10 0 -10 6 -13
20 -10 14 4 20 0 20 -10 0 -10 6 -13 20 -10 11 3 20 0 20 -6 0 -6 8 -11 19
-11 10 0 24 -6 31 -14 6 -8 18 -12 26 -9 8 3 22 -1 30 -8 9 -8 29 -12 45 -11
19 2 29 -1 29 -10 0 -9 13 -12 50 -10 37 3 50 0 50 -10 0 -17 144 -16 165 2 8
7 34 10 60 8 33 -2 45 0 45 11 0 9 9 12 30 9 21 -3 30 0 30 10 0 10 9 13 30
10 22 -3 30 0 30 10 0 9 7 13 20 9 11 -3 27 2 35 10 9 8 22 12 30 9 9 -3 15 1
15 10 0 11 6 15 20 11 13 -3 20 0 20 9 0 8 9 14 20 14 11 0 20 5 20 10 0 6 9
10 20 10 11 0 20 5 20 10 0 6 9 10 20 10 11 0 20 5 20 10 0 6 9 10 20 10 11 0
20 5 20 10 0 6 9 10 20 10 11 0 20 5 20 10 0 6 9 10 20 10 11 0 20 5 20 10 0
6 9 10 20 10 11 0 20 5 20 10 0 6 14 10 30 10 17 0 30 5 30 10 0 6 14 10 30
10 17 0 30 5 31 13 0 10 2 10 6 0 2 -7 13 -13 24 -13 12 0 19 -7 19 -20 0 -11
5 -20 10 -20 6 0 10 -25 10 -55 0 -30 -4 -55 -10 -55 -5 0 -10 -18 -10 -40 0
-22 -4 -40 -10 -40 -5 0 -10 -18 -10 -40 0 -22 -4 -40 -10 -40 -5 0 -10 -13
-10 -30 0 -16 -4 -30 -10 -30 -5 0 -10 -9 -10 -20 0 -11 -6 -20 -13 -20 -9 0
-12 -10 -9 -30 3 -21 0 -30 -10 -30 -10 0 -13 -9 -10 -30 3 -22 0 -30 -11 -30
-10 0 -13 -6 -10 -18 2 -10 -2 -24 -10 -31 -8 -6 -13 -21 -10 -31 4 -14 0 -20
-11 -20 -10 0 -14 -5 -10 -11 7 -11 -12 -54 -34 -77 -7 -8 -10 -18 -6 -23 6
-11 -17 -69 -28 -69 -5 0 -8 -9 -8 -19 0 -11 -8 -22 -18 -25 -10 -4 -25 -22
-32 -42 -8 -19 -19 -39 -26 -45 -7 -5 -10 -19 -7 -29 4 -14 0 -20 -10 -20 -10
0 -13 -6 -10 -20 4 -14 0 -20 -10 -20 -10 0 -13 -6 -10 -20 4 -14 0 -20 -11
-20 -9 0 -13 -6 -10 -15 7 -16 -9 -35 -44 -54 -12 -7 -20 -16 -17 -22 4 -5 1
-9 -4 -9 -6 0 -11 -6 -11 -14 0 -36 -67 -136 -92 -136 -4 0 -8 -5 -8 -11 0
-13 -25 -39 -39 -39 -6 0 -8 -7 -5 -15 8 -19 -14 -40 -49 -49 -15 -3 -27 -11
-27 -17 0 -17 -67 -78 -87 -78 -10 -1 -34 -4 -53 -7 -78 -14 -149 -15 -191 -3
-24 7 -50 12 -56 10 -7 -1 -29 14 -48 34 -20 19 -32 35 -28 35 4 1 -7 7 -24
15 -44 19 -86 62 -79 80 3 9 -1 15 -10 15 -8 0 -13 4 -9 10 3 5 -7 16 -22 24
-37 19 -66 54 -59 72 3 8 -1 14 -10 14 -11 0 -15 6 -11 20 3 13 0 20 -10 20
-8 0 -13 7 -11 18 1 9 0 17 -4 17 -27 0 -127 172 -113 194 3 6 -1 11 -11 11
-11 0 -15 6 -11 20 3 14 0 20 -10 20 -11 0 -14 6 -10 21 4 14 -1 23 -16 30
-24 11 -72 102 -63 118 4 5 1 15 -6 23 -22 23 -41 66 -34 77 4 6 0 11 -10 11
-11 0 -15 6 -11 20 3 10 -2 25 -10 31 -8 7 -12 21 -10 31 3 12 0 18 -10 18
-11 0 -14 8 -11 30 3 21 0 30 -10 30 -10 0 -13 9 -10 30 3 20 0 30 -9 30 -7 0
-13 9 -13 20 0 11 -4 20 -10 20 -5 0 -10 14 -10 30 0 17 -4 30 -10 30 -5 0
-10 14 -10 30 0 17 -4 30 -10 30 -5 0 -10 18 -10 40 0 22 -4 40 -10 40 -5 0
-10 18 -10 40 0 22 -4 40 -10 40 -5 0 -10 23 -10 50 0 39 5 56 23 75 22 24 67
34 67 15z"/>
<path d="M22318 2733 c7 -3 16 -2 19 1 4 3 -2 6 -13 5 -11 0 -14 -3 -6 -6z"/>
<path d="M22271 2694 c-12 -14 -21 -27 -19 -30 3 -2 17 10 33 26 16 17 25 30
19 29 -5 0 -20 -11 -33 -25z"/>
<path d="M22344 2711 c5 -8 56 -3 56 5 0 2 -14 4 -31 4 -16 0 -28 -4 -25 -9z"/>
<path d="M22425 2690 c3 -5 8 -10 11 -10 2 0 4 5 4 10 0 6 -5 10 -11 10 -5 0
-7 -4 -4 -10z"/>
<path d="M23918 2673 c18 -2 45 -2 60 0 15 2 0 4 -33 4 -33 0 -45 -2 -27 -4z"/>
<path d="M22231 2644 c0 -11 3 -14 6 -6 3 7 2 16 -1 19 -3 4 -6 -2 -5 -13z"/>
<path d="M23850 2649 c0 -5 5 -7 10 -4 6 3 10 8 10 11 0 2 -4 4 -10 4 -5 0
-10 -5 -10 -11z"/>
<path d="M24015 2640 c10 -11 20 -18 23 -16 5 6 -23 36 -34 36 -4 0 1 -9 11
-20z"/>
<path d="M24052 2595 c0 -16 2 -22 5 -12 2 9 2 23 0 30 -3 6 -5 -1 -5 -18z"/>
<path d="M23334 1248 l-29 -33 35 30 c19 17 37 31 39 33 2 1 0 2 -5 2 -6 0
-23 -15 -40 -32z"/>
<path d="M22950 1260 c0 -5 5 -10 11 -10 5 0 7 5 4 10 -3 6 -8 10 -11 10 -2 0
-4 -4 -4 -10z"/>
<path d="M3590 3769 c0 -5 5 -7 10 -4 6 3 10 8 10 11 0 2 -4 4 -10 4 -5 0 -10
-5 -10 -11z"/>
<path d="M3573 3665 c0 -33 2 -45 4 -27 2 18 2 45 0 60 -2 15 -4 0 -4 -33z"/>
<path d="M3590 3600 c0 -5 5 -10 11 -10 5 0 7 5 4 10 -3 6 -8 10 -11 10 -2 0
-4 -4 -4 -10z"/>
<path d="M3625 3580 c-3 -5 1 -10 10 -10 9 0 13 5 10 10 -3 6 -8 10 -10 10 -2
0 -7 -4 -10 -10z"/>
<path d="M10058 2513 c7 -3 16 -2 19 1 4 3 -2 6 -13 5 -11 0 -14 -3 -6 -6z"/>
<path d="M10032 2383 c-2 -120 -3 -123 -24 -124 -21 -1 -21 -2 -3 -6 11 -3 25
-9 30 -13 7 -6 9 23 7 83 -4 163 -8 185 -10 60z"/>
<path d="M10087 2485 c-4 -8 -2 -17 3 -20 6 -4 10 3 10 14 0 25 -6 27 -13 6z"/>
<path d="M10108 2404 c-1 -31 0 -58 5 -61 4 -2 7 23 7 56 0 76 -7 79 -12 5z"/>
<path d="M10134 2110 c0 -129 2 -182 3 -117 2 64 2 170 0 235 -1 64 -3 11 -3
-118z"/>
<path d="M32860 2231 c-138 -30 -294 -96 -410 -175 -75 -51 -229 -206 -281
-284 -89 -133 -134 -242 -178 -435 -14 -60 -14 -343 0 -405 26 -119 31 -138
39 -157 4 -11 16 -40 25 -65 69 -185 228 -386 395 -496 136 -91 303 -157 455
-181 111 -17 437 -4 451 18 3 5 20 9 38 9 17 0 36 4 41 8 6 4 28 14 50 21 69
23 167 73 241 122 77 51 205 171 244 229 14 19 32 44 42 54 10 11 18 25 18 32
0 7 4 14 8 16 8 3 44 75 77 153 9 22 21 48 26 57 5 10 9 29 9 42 0 14 4 27 9
30 12 8 22 71 27 184 4 71 9 92 20 92 18 0 19 46 0 57 -10 6 -16 35 -19 103
-6 114 -16 178 -28 186 -5 3 -9 16 -9 30 0 13 -4 32 -9 42 -5 9 -13 28 -19 42
-140 354 -442 602 -821 674 -115 22 -330 20 -441 -3z m410 -1051 c0 -5 19 -11
43 -12 36 -1 38 -2 10 -5 -18 -2 -33 -8 -33 -13 0 -5 -8 -11 -17 -13 -10 -3 3
-5 30 -6 26 0 47 -5 47 -11 0 -5 9 -10 20 -10 11 0 20 -4 20 -9 0 -5 8 -12 18
-14 9 -2 5 -3 -10 -2 -21 1 -28 -3 -28 -17 0 -10 7 -18 16 -18 8 0 22 -7 30
-15 14 -13 13 -15 -5 -15 -16 0 -21 -6 -21 -25 0 -14 5 -25 12 -25 6 0 1 -8
-10 -19 -23 -20 -29 -41 -11 -41 6 0 4 -7 -5 -15 -18 -18 -33 -19 -39 -2 -3 6
-6 -1 -6 -16 -1 -33 -25 -61 -46 -54 -7 3 -19 -1 -26 -9 -10 -13 -10 -17 2
-25 9 -6 -3 -9 -38 -9 -29 0 -53 -4 -53 -10 0 -5 -25 -10 -55 -10 -42 0 -55 3
-55 15 0 12 14 15 63 17 59 2 60 2 13 5 -35 3 -55 11 -68 25 -10 12 -18 16
-18 10 0 -7 -12 -12 -27 -12 -21 0 -24 3 -14 9 21 13 -3 41 -29 34 -14 -4 -20
0 -20 11 0 9 5 16 10 16 6 0 10 9 10 19 0 14 -6 18 -22 15 -13 -2 -17 -2 -10
2 14 7 16 54 2 54 -17 0 -11 25 10 40 28 21 27 50 -2 42 -22 -5 -22 -5 -6 11
9 9 22 17 28 17 14 0 40 25 40 38 0 6 -6 13 -12 16 -7 4 -3 4 10 2 14 -3 22 1
22 10 0 8 9 14 20 14 11 0 20 5 20 10 0 6 38 10 95 10 57 0 95 -4 95 -10z"/>
<path d="M33045 1110 c4 -6 11 -8 16 -5 14 9 11 15 -7 15 -8 0 -12 -5 -9 -10z"/>
<path d="M33010 1089 c0 -5 5 -7 10 -4 6 3 10 8 10 11 0 2 -4 4 -10 4 -5 0
-10 -5 -10 -11z"/>
<path d="M33350 1045 c13 -14 26 -23 28 -20 5 5 -36 45 -46 45 -3 0 5 -11 18
-25z"/>
<path d="M32981 1018 c-14 -23 -14 -23 8 -4 22 20 25 26 13 26 -4 0 -13 -10
-21 -22z"/>
<path d="M33366 965 c4 -8 8 -15 10 -15 2 0 4 7 4 15 0 8 -4 15 -10 15 -5 0
-7 -7 -4 -15z"/>
<path d="M32986 961 c-4 -5 -2 -12 3 -15 5 -4 12 -2 15 3 4 5 2 12 -3 15 -5 4
-12 2 -15 -3z"/>
<path d="M33305 920 c-8 -13 8 -18 29 -10 19 6 19 7 -2 12 -12 4 -24 2 -27 -2z"/>
<path d="M33016 901 c-12 -5 -15 -10 -9 -14 6 -4 16 0 23 8 14 17 13 17 -14 6z"/>
<path d="M33244 859 c-7 -12 9 -16 41 -9 l30 6 -33 5 c-18 3 -35 2 -38 -2z"/>
<path d="M9972 2183 c-1 -23 -7 -43 -14 -45 -8 -3 -6 -7 5 -11 22 -8 24 -1 16
53 l-6 45 -1 -42z"/>
<path d="M9929 2082 c-3 -18 -2 -35 2 -38 12 -7 16 9 9 41 l-6 30 -5 -33z"/>
<path d="M9890 2004 c0 -14 4 -23 9 -20 5 3 7 15 4 26 -7 28 -13 25 -13 -6z"/>
<path d="M9870 1956 c0 -8 -6 -16 -12 -19 -7 -2 -10 -7 -7 -11 3 -3 14 2 23
13 11 12 14 21 7 26 -6 3 -11 0 -11 -9z"/>
<path d="M10048 1822 c-2 -4 -1 -54 3 -112 l5 -105 2 102 c1 68 6 103 14 105
8 3 6 7 -5 11 -9 3 -18 3 -19 -1z"/>
<path d="M9790 1809 c0 -5 5 -7 10 -4 6 3 10 8 10 11 0 2 -4 4 -10 4 -5 0 -10
-5 -10 -11z"/>
<path d="M9814 1768 l-19 -23 23 19 c21 18 27 26 19 26 -2 0 -12 -10 -23 -22z"/>
<path d="M9786 1724 c-5 -14 -4 -15 9 -4 17 14 19 20 6 20 -5 0 -12 -7 -15
-16z"/>
<path d="M9726 1644 c-5 -14 -4 -15 9 -4 17 14 19 20 6 20 -5 0 -12 -7 -15
-16z"/>
<path d="M9966 1482 c-2 -4 -1 -14 5 -22 7 -12 9 -10 9 8 0 23 -5 28 -14 14z"/>
<path d="M9596 1461 c-12 -5 -15 -10 -9 -14 6 -4 16 0 23 8 14 17 13 17 -14 6z"/>
<path d="M6848 1453 c12 -2 30 -2 40 0 9 3 -1 5 -23 4 -22 0 -30 -2 -17 -4z"/>
<path d="M6810 1429 c0 -5 5 -7 10 -4 6 3 10 8 10 11 0 2 -4 4 -10 4 -5 0 -10
-5 -10 -11z"/>
<path d="M6904 1431 c3 -5 15 -7 26 -4 28 7 25 13 -6 13 -14 0 -23 -4 -20 -9z"/>
<path d="M6791 1404 c0 -11 3 -14 6 -6 3 7 2 16 -1 19 -3 4 -6 -2 -5 -13z"/>
<path d="M6965 1410 c3 -5 8 -10 11 -10 2 0 4 5 4 10 0 6 -5 10 -11 10 -5 0
-7 -4 -4 -10z"/>
<path d="M7010 1386 c0 -2 7 -9 15 -16 9 -7 15 -8 15 -2 0 5 -7 12 -15 16 -8
3 -15 4 -15 2z"/>
<path d="M6825 1360 c-3 -5 1 -10 10 -10 9 0 13 5 10 10 -3 6 -8 10 -10 10 -2
0 -7 -4 -10 -10z"/>
<path d="M6850 1329 c0 -5 5 -7 10 -4 6 3 10 8 10 11 0 2 -4 4 -10 4 -5 0 -10
-5 -10 -11z"/>
<path d="M9885 1320 c-3 -5 -1 -10 4 -10 6 0 11 5 11 10 0 6 -2 10 -4 10 -3 0
-8 -4 -11 -10z"/>
<path d="M6832 1300 c0 -14 2 -19 5 -12 2 6 2 18 0 25 -3 6 -5 1 -5 -13z"/>
<path d="M7110 1286 c0 -2 8 -10 18 -17 15 -13 16 -12 3 4 -13 16 -21 21 -21
13z"/>
<path d="M9811 1226 c-7 -8 -8 -17 -3 -20 6 -3 12 3 15 14 6 24 4 25 -12 6z"/>
<path d="M6887 1223 c-2 -5 -1 -17 3 -27 6 -19 7 -19 12 2 6 21 -6 40 -15 25z"/>
<path d="M9150 1069 c0 -5 5 -7 10 -4 6 3 10 8 10 11 0 2 -4 4 -10 4 -5 0 -10
-5 -10 -11z"/>
<path d="M7056 961 c-12 -5 -15 -10 -9 -14 6 -4 16 0 23 8 14 17 13 17 -14 6z"/>
<path d="M9535 890 c-3 -6 1 -7 9 -4 18 7 21 14 7 14 -6 0 -13 -4 -16 -10z"/>
<path d="M17964 499 c-3 -5 9 -9 25 -9 17 0 31 2 31 4 0 8 -51 13 -56 5z"/>
<path d="M17670 476 c0 -8 51 -13 56 -5 3 5 -9 9 -25 9 -17 0 -31 -2 -31 -4z"/>
<path d="M18145 470 c3 -5 12 -7 20 -3 21 7 19 13 -6 13 -11 0 -18 -4 -14 -10z"/>
<path d="M17610 456 c0 -9 30 -14 35 -6 4 6 -3 10 -14 10 -12 0 -21 -2 -21 -4z"/>
<path d="M18231 424 c0 -11 3 -14 6 -6 3 7 2 16 -1 19 -3 4 -6 -2 -5 -13z"/>
<path d="M17621 401 c-10 -6 -9 -10 3 -14 8 -3 18 -2 21 3 8 13 -9 20 -24 11z"/>
<path d="M18221 394 c6 -7 17 -10 25 -7 20 7 18 10 -11 15 -20 4 -23 2 -14 -8z"/>
<path d="M18241 317 c-9 -11 -8 -17 4 -27 10 -9 15 -9 15 -1 0 6 -6 11 -12 11
-9 0 -8 3 2 10 8 5 12 12 9 15 -4 3 -11 -1 -18 -8z"/>
<path d="M17620 299 c-13 -7 -13 -9 0 -9 13 0 13 -1 0 -10 -8 -5 -12 -11 -9
-15 3 -3 14 3 23 14 19 21 9 35 -14 20z"/>
<path d="M17618 193 c6 -2 12 -14 12 -26 0 -18 2 -19 10 -7 10 16 -5 41 -24
39 -7 0 -6 -2 2 -6z"/>
<path d="M18222 177 c-15 -16 -18 -27 -12 -37 8 -12 10 -12 10 4 0 10 10 27
22 37 11 11 17 19 11 19 -5 0 -19 -10 -31 -23z"/>
<path d="M9010 165 c-7 -9 -8 -15 -2 -15 5 0 12 7 16 15 3 8 4 15 2 15 -2 0
-9 -7 -16 -15z"/>
<path d="M17650 131 c0 -25 6 -27 13 -6 4 8 2 17 -3 20 -6 4 -10 -3 -10 -14z"/>
<path d="M7807 33 c18 -2 50 -2 70 0 21 2 7 4 -32 4 -38 0 -55 -2 -38 -4z"/>
</g>
</svg>
